<svg xmlns="http://www.w3.org/2000/svg" version="1.1" xmlns:xlink="http://www.w3.org/1999/xlink" xmlns:svgjs="http://svgjs.dev/svgjs" width="1500" height="1500" viewBox="0 0 1500 1500"><rect width="1500" height="1500" fill="#ffffff"></rect><g transform="matrix(0.6666666666666666,0,0,0.6666666666666666,248.77603355201097,231.6666666666668)"><svg viewBox="0 0 240 248" data-background-color="#ffffff" preserveAspectRatio="xMidYMid meet" height="1550" width="1500" xmlns="http://www.w3.org/2000/svg" xmlns:xlink="http://www.w3.org/1999/xlink"><g id="tight-bounds" transform="matrix(1,0,0,1,0.29375194751736444,0.4000000000000057)"><svg viewBox="0 0 239.41249610496527 247.2" height="247.2" width="239.41249610496527"><g><svg viewBox="0 0 395.52 408.38529980963784" height="247.2" width="239.41249610496527"><g transform="matrix(1,0,0,1,0,281.19086626815704)"><svg viewBox="0 0 395.52 127.19443354148082" height="127.19443354148082" width="395.52"><g id="textblocktransform"><svg viewBox="0 0 395.52 127.19443354148082" height="127.19443354148082" width="395.52" id="textblock"><g><svg viewBox="0 0 395.52 127.19443354148082" height="127.19443354148082" width="395.52"><g transform="matrix(1,0,0,1,0,0)"><svg width="395.52" viewBox="1.25 -35.55 112.09 36.05" height="127.19443354148082" data-palette-color="#556970"><path d="M32.25-34.05L29.5-34.05 29.5 0 22.5 0 5.35-32.35 5.35-0.95 8.1-0.95 8.1 0 1.25 0 1.25-0.95 4-0.95 4-34.05 1.25-34.05 1.25-35 15.05-35 28.15-9.9 28.15-34.05 25.4-34.05 25.4-35 32.25-35 32.25-34.05ZM47.05-10.65Q47.05-6.05 48.62-3.6 50.2-1.15 54.3-1.15 58.4-1.15 60.6-3.7 62.8-6.25 62.8-11.45L62.8-11.45 62.8-34.05 59.55-34.05 59.55-35 66.85-35 66.85-34.05 64.1-34.05 64.1-11.8Q64.1-5.6 61.35-2.55 58.6 0.5 51.62 0.5 44.65 0.5 40.97-2.4 37.3-5.3 37.3-12.35L37.3-12.35 37.3-34.05 34.55-34.05 34.55-35 50.3-35 50.3-34.05 47.05-34.05 47.05-10.65ZM68.9-34.05L68.9-35 84.15-35 84.15-34.05 81.4-34.05 81.4-0.95 84.15-0.95 84.15 0 68.9 0 68.9-0.95 71.65-0.95 71.65-34.05 68.9-34.05ZM101.64-0.55L101.64-0.55Q104.14-0.55 106.07-1.9 107.99-3.25 107.99-5.98 107.99-8.7 105.92-10.15 103.84-11.6 100.02-12.68 96.19-13.75 94.47-14.55 92.74-15.35 91.19-16.65L91.19-16.65Q88.09-19.25 88.09-24.7L88.09-24.7Q88.09-29.15 91.27-32.35 94.44-35.55 99.94-35.55L99.94-35.55Q102.59-35.55 105.47-34.77 108.34-34 109.04-34 109.74-34 110.29-35L110.29-35 110.84-35 111.19-24.9 110.39-24.9Q107.99-29.25 105.37-31.88 102.74-34.5 99.67-34.5 96.59-34.5 94.89-33.08 93.19-31.65 93.19-29.28 93.19-26.9 95.22-25.63 97.24-24.35 100.19-23.55 103.14-22.75 104.07-22.45 104.99-22.15 106.37-21.63 107.74-21.1 108.62-20.53 109.49-19.95 110.47-19.07 111.44-18.2 111.99-17.15L111.99-17.15Q113.34-14.75 113.34-11.45L113.34-11.45Q113.34-6.05 109.97-2.78 106.59 0.5 101.09 0.5L101.09 0.5Q98.24 0.5 94.57-0.25 90.89-1 90.49-1L90.49-1Q89.79-1 89.14 0.5L89.14 0.5 88.44 0.5 87.94-11.4 88.79-11.4Q90.99-7.05 94.42-3.8 97.84-0.55 101.64-0.55Z" opacity="1" transform="matrix(1,0,0,1,0,0)" fill="#556970" class="wordmark-text-0" data-fill-palette-color="primary" id="text-0"></path></svg></g></svg></g></svg></g></svg></g><g transform="matrix(1,0,0,1,87.1921199586601,0)"><svg viewBox="0 0 221.13576008267978 221.13576008267978" height="221.13576008267978" width="221.13576008267978"><g><svg></svg></g><g id="icon-0"><svg viewBox="0 0 221.13576008267978 221.13576008267978" height="221.13576008267978" width="221.13576008267978"><g><path d="M0 110.568c0-61.065 49.503-110.568 110.568-110.568 61.065 0 110.568 49.503 110.568 110.568 0 61.065-49.503 110.568-110.568 110.568-61.065 0-110.568-49.503-110.568-110.568zM110.568 209.665c54.73 0 99.097-44.367 99.097-99.097 0-54.73-44.367-99.097-99.097-99.097-54.73 0-99.097 44.367-99.097 99.097 0 54.73 44.367 99.097 99.097 99.097z" data-fill-palette-color="accent" fill="#aba944" stroke="transparent"></path><ellipse rx="109.46220124092649" ry="109.46220124092649" cx="110.56788004133989" cy="110.56788004133989" fill="#aba944" stroke="transparent" stroke-width="0" fill-opacity="1" data-fill-palette-color="accent"></ellipse></g><g transform="matrix(1,0,0,1,52.26862057802078,51.7453907586668)"><svg viewBox="0 0 116.59851892663822 117.64497856534618" height="117.64497856534618" width="116.59851892663822"><g><svg xmlns="http://www.w3.org/2000/svg" xmlns:xlink="http://www.w3.org/1999/xlink" version="1.1" x="0" y="0" viewBox="6.338 7 76.32400000000001 77.009" enable-background="new 0 0 89 89" xml:space="preserve" height="117.64497856534618" width="116.59851892663822" class="icon-dxe-0" data-fill-palette-color="quaternary" id="dxe-0"><rect x="6.338" y="7" width="76.324" height="19.885" fill="#ffffff" data-fill-palette-color="quaternary"></rect><rect x="6.338" y="30.5" width="26.111" height="26.109" fill="#ffffff" data-fill-palette-color="quaternary"></rect><rect x="37.872" y="31.1" width="44.79" height="4.017" fill="#ffffff" data-fill-palette-color="quaternary"></rect><rect x="37.872" y="37.932" width="44.79" height="4.017" fill="#ffffff" data-fill-palette-color="quaternary"></rect><rect x="37.872" y="45.041" width="44.79" height="4.017" fill="#ffffff" data-fill-palette-color="quaternary"></rect><rect x="37.872" y="52.124" width="44.79" height="4.018" fill="#ffffff" data-fill-palette-color="quaternary"></rect><rect x="6.338" y="58.966" width="76.324" height="4.018" fill="#ffffff" data-fill-palette-color="quaternary"></rect><rect x="6.338" y="65.797" width="76.324" height="4.018" fill="#ffffff" data-fill-palette-color="quaternary"></rect><rect x="6.338" y="72.907" width="76.324" height="4.018" fill="#ffffff" data-fill-palette-color="quaternary"></rect><rect x="6.338" y="79.991" width="76.324" height="4.018" fill="#ffffff" data-fill-palette-color="quaternary"></rect></svg></g></svg></g></svg></g></svg></g><g></g></svg></g><defs></defs></svg><rect width="239.41249610496527" height="247.2" fill="none" stroke="none" visibility="hidden"></rect></g></svg></g></svg>